<svg id="Layer_6" data-name="Layer 6" xmlns="http://www.w3.org/2000/svg" viewBox="0 0 1245 482.25"><defs><style>.cls-1{fill:#fff;}</style></defs><title>logo_vliegtuig_wit</title><g id="Logo"><path class="cls-1" d="M270.37,626.18H250.7q-7.38,0-8.61-7l-2.87-31.56H129.39V685.2h108.2v31.15H129.39V816.76H239.23l2.46-29.51q1.23-6.55,9-6.56h19.67v68H59.72V831.51q0-6.55,6.15-7.79l23.36-4.51v-234q-19.67-3.69-23.36-4.92-6.15-1.23-6.15-7.79V555.28H270.37Zm499.18,15.16H749.88q-7.79,0-9-7.38l-3.28-36.89Q703.15,586,675.7,586q-46.32,0-76.23,31.15Q569.55,649.55,569.55,702q0,34,12.5,60.25T617.7,803q23.15,14.55,53.89,14.55,23.76,0,41.6-5.94t33.4-20.29q3.69-3.28,7.38-3.28a7.87,7.87,0,0,1,5.74,2.46l15.57,17.21Q737.17,852,669.55,852q-42.63,0-74.38-19.47a129,129,0,0,1-48.77-53.48q-17-34-17-77,0-66,41-108.2Q610.94,552,681.43,552q32.78,0,88.11,20.49ZM920,644.21a69.61,69.61,0,0,1,27,17.62,83.68,83.68,0,0,1,18,29.1,116.69,116.69,0,0,1,6.56,39.34q0,9.43-1.64,11.48-2.06,2.87-7.38,2.87H824.87q0,19.67,4.92,34.43a66.29,66.29,0,0,0,13.93,23.77,53,53,0,0,0,20.49,14.75,70,70,0,0,0,26.23,4.92q14.76,0,23.77-2.87a150.19,150.19,0,0,0,17.21-7q9-4.5,12.3-6.56,5.32-3.28,8.2-3.28a7.9,7.9,0,0,1,7,3.69L969.14,820q-5.74,7.38-16.39,13.93-12.3,7.79-20.08,10.25A148,148,0,0,1,910.53,850,138.31,138.31,0,0,1,888,852a106.05,106.05,0,0,1-39.75-7.38,87.23,87.23,0,0,1-31.56-21.72q-13.12-13.52-20.49-34.84-7.38-20.9-7.38-47.54a114.84,114.84,0,0,1,7-40.16A97.23,97.23,0,0,1,815,667.58a88.51,88.51,0,0,1,30.74-21.72q18-7.78,40.16-7.79A93.94,93.94,0,0,1,920,644.21Zm-74.59,35.66q-15.17,16-18.85,42.62h112.7a67.43,67.43,0,0,0-3.69-23q-4.51-12.7-9.84-18.44a53.56,53.56,0,0,0-16.8-11.89q-9.43-4.09-22.54-4.1l.41-.41Q860.11,664.71,845.37,679.87Zm286.47-35.66a69.61,69.61,0,0,1,27,17.62,83.68,83.68,0,0,1,18,29.1,116.69,116.69,0,0,1,6.56,39.34q0,9.43-1.64,11.48-2.06,2.87-7.38,2.87h-137.7q0,19.67,4.92,34.43a66.29,66.29,0,0,0,13.93,23.77,53,53,0,0,0,20.49,14.75,70,70,0,0,0,26.23,4.92q14.76,0,23.77-2.87a150.19,150.19,0,0,0,17.21-7q9-4.5,12.3-6.56,5.32-3.28,8.2-3.28a7.9,7.9,0,0,1,7,3.69L1181,820q-5.74,7.38-16.39,13.93-12.3,7.79-20.08,10.25a148,148,0,0,1-22.13,5.74,138.31,138.31,0,0,1-22.54,2,106.05,106.05,0,0,1-39.75-7.38,87.23,87.23,0,0,1-31.56-21.72q-13.12-13.52-20.49-34.84-7.38-20.9-7.38-47.54a114.84,114.84,0,0,1,7-40.16,97.23,97.23,0,0,1,19.26-32.79,88.51,88.51,0,0,1,30.74-21.72q18-7.78,40.16-7.79A93.94,93.94,0,0,1,1131.83,644.21Zm-74.59,35.66q-15.17,16-18.85,42.62h112.7a67.42,67.42,0,0,0-3.69-23q-4.51-12.7-9.84-18.44a53.56,53.56,0,0,0-16.8-11.89q-9.43-4.09-22.54-4.1l.41-.41Q1072,664.71,1057.24,679.87ZM316,572.75c0-.3,0-.61,0-.91a20,20,0,1,1,40,0c0,.31,0,.61,0,.91s0,.6-.07.9l0,.23,0,.23q0,.42-.11.83t-.14.82v.13c-.06.28-.12.55-.19.83s-.15.54-.23.81l-.08.26-.08.26q-.11.32-.22.64t-.24.63l-.11.26-.11.26q-.14.31-.28.62l-.3.61-.17.32-.18.32-.24.41-.25.4-.35.53-.36.52-.24.33-.24.32-.3.37-.31.37-.19.21-.19.21q-.34.37-.69.72t-.73.68l-.09.08-.09.08-.44.37-.45.35-.13.1-.13.1q-.48.35-1,.68t-1,.63a20.06,20.06,0,0,1-4.72,2,19.9,19.9,0,0,1-10.49,0,20.06,20.06,0,0,1-4.72-2q-.52-.3-1-.63t-1-.68l-.13-.1-.13-.1-.45-.35-.44-.37-.09-.08-.09-.08q-.37-.33-.73-.68t-.69-.72l-.19-.21-.19-.21-.31-.37-.3-.37-.24-.32-.24-.33-.36-.52-.35-.53-.25-.4-.24-.41-.18-.32-.17-.32-.3-.61q-.15-.31-.28-.62l-.11-.26-.11-.26q-.13-.31-.24-.63t-.22-.64l-.08-.26-.08-.26c-.08-.27-.16-.54-.23-.81s-.14-.55-.19-.83v-.13q-.08-.4-.14-.82t-.11-.83l0-.23,0-.23C316.06,573.35,316,573,316,572.75Zm125.82.9,0,.23,0,.23q0,.42.11.83t.14.82v.13c.06.28.12.55.19.83s.15.54.23.81l.08.26.08.26q.11.32.22.64t.24.63l.11.26.11.26q.14.31.28.62l.3.61.17.32.18.32.24.41.25.4.35.53.36.52.24.33.24.32.3.37.31.37.19.21.19.21q.34.37.69.72t.73.68l.09.08.09.08.44.37.45.35.13.1.13.1q.48.35,1,.68t1,.63a20.06,20.06,0,0,0,4.72,2,19.9,19.9,0,0,0,10.49,0,20.06,20.06,0,0,0,4.72-2q.52-.3,1-.63t1-.68l.13-.1.13-.1.45-.35.44-.37.09-.08.09-.08q.37-.33.73-.68t.69-.72l.19-.21.19-.21.31-.37.3-.37.24-.32.24-.33.36-.52.35-.53.25-.4.24-.41.18-.32.17-.32.3-.61q.15-.31.28-.62l.11-.26.11-.26q.13-.31.24-.63t.22-.64l.08-.26.08-.26c.08-.27.16-.54.23-.81s.14-.55.19-.83v-.13q.08-.4.14-.82t.11-.83l0-.23,0-.23c0-.3,0-.6.07-.9s0-.61,0-.91a20,20,0,0,0-40,0c0,.31,0,.61,0,.91S441.81,573.35,441.84,573.65Zm19.91,23.18a24.92,24.92,0,0,1-9.38-1.83l2,19.73,2,19.73a17.85,17.85,0,0,1,2.77-.71,17.13,17.13,0,0,1,2.92-.25,17.64,17.64,0,0,1,2.67.2,17.39,17.39,0,0,1,2.54.59l2-19.64,2-19.64a24.92,24.92,0,0,1-9.38,1.83Zm-125.75,0a24.92,24.92,0,0,1-9.38-1.83l2,19.64,2,19.64a17.39,17.39,0,0,1,2.54-.59,17.64,17.64,0,0,1,2.67-.2,17.13,17.13,0,0,1,2.92.25,17.85,17.85,0,0,1,2.77.71l2-19.73,2-19.73a24.92,24.92,0,0,1-9.38,1.83ZM1238,887a13,13,0,0,1-21.3,10H492.31l-46.72-68.23-46.72-68.23-46.72,68.23L305.44,897H20V726.29a30,30,0,1,1,20,0V877H294.89l45.93-67.08,45.93-67.08L359.62,703.2l-27.14-39.64A13,13,0,1,1,348.75,651c0,.15,0,.29,0,.44s0,.29,0,.43l25.08,36.63,25.08,36.63L424,688.5,449,651.87c0-.14,0-.29,0-.43s0-.29,0-.44a13,13,0,1,1,16.27,12.57L438.13,703.2,411,742.84l45.93,67.08L502.86,877H1216.7a13,13,0,0,1,21.3,10ZM37.07,705.07A10,10,0,1,0,30,708,10,10,0,0,0,37.07,705.07ZM1245,810a20,20,0,1,1-20-20A20,20,0,0,1,1245,810Zm-20,59a18,18,0,0,1,5.71.94l3.68-36.77a25,25,0,0,1-18.77,0l3.68,36.77A18,18,0,0,1,1225,869Z" transform="translate(0 -417.75)"/></g><g id="mid"><path class="cls-1" d="M997.18,627.89c-2.5-8.73-4.86-16.82-7.14-24.94-5.65-20.16-11.47-40.29-16.73-60.55-1.29-5-3.55-5.19-7.42-4-6.66,2.11-13.34,4.17-20,6.25-8.58,2.68-17.24,5.14-25.68,8.21-2,.74-3.87,3.25-4.83,5.38a22.18,22.18,0,0,0-2,8.71c-.09,11.81-7.55,17.88-17.62,22.81a28.63,28.63,0,0,1-1.19-4.4c-1-9.41-2.21-18.82-2.87-28.27a29.18,29.18,0,0,0-5.65-15.68c-5.56-7.67-10.73-15.61-16-23.46-.81-1.19-1.41-2.53-2.51-4.54,6.22-.68,11.73-1.37,17.25-1.79.93-.07,2,1,2.93,1.67,5.15,3.95,10.12,8.16,15.47,11.81,1.75,1.19,4.86,2,6.68,1.24,15.46-6.14,30.78-12.66,46.13-19.08,2.63-1.1,3.91-2.4,2.4-5.69-10.88-23.54-21.56-47.16-32.29-70.77-1.64-3.61-3.2-7.25-5.09-11.53,6-.6,11.64-1.32,17.32-1.59,1.13-.05,2.57,1.43,3.49,2.53q14.68,17.31,29.23,34.73c9.08,10.82,18.07,21.72,27.34,32.38a6.55,6.55,0,0,0,5.55,1.47c14.11-3.86,28.09-8.18,42.19-12.08,9-2.49,17.81-1.07,26.45,2,3.8,1.34,3.55,3.74,1.83,6.68-5.89,10-14.63,16.67-25.09,21.24-11.12,4.86-22.36,9.46-33.39,14.51a7,7,0,0,0-3.47,5.07q-.24,42.89.07,85.79c0,3.89-.91,6.58-4.47,8.55S1001.22,625.15,997.18,627.89Z" transform="translate(0 -417.75)"/></g></svg>