<?xml version="1.0" encoding="utf-8"?>
<!-- Generator: Adobe Illustrator 21.1.0, SVG Export Plug-In . SVG Version: 6.00 Build 0)  -->
<svg version="1.1" id="Logo_1_" xmlns="http://www.w3.org/2000/svg" xmlns:xlink="http://www.w3.org/1999/xlink" x="0px" y="0px"
	 viewBox="0 0 1263 429" style="enable-background:new 0 0 1263 429;" xml:space="preserve">
<style type="text/css">
	.st0{display:none;fill:#EC8181;}
	.st1{display:none;fill:#CCFF67;}
	.st2{display:none;fill:#6000FF;}
	.st3{display:none;fill:#FFB9C6;}
	.st4{display:none;fill:#68D6FF;}
	.st5{display:none;fill:#ED7600;}
	.st6{display:none;fill:#C8102E;}
	.st7{display:none;fill:#DFE52D;}
	.st8{display:none;fill:#86AEAF;}
	.st9{display:none;}
	.st10{display:inline;}
	.st11{fill:#FFFFFF;}
	.st12{display:inline;fill:#FFFFFF;}
</style>
<rect id="_x23_ffb9c6_1_" x="-180" y="-648" class="st0" width="1718" height="832"/>
<rect id="_x23_ffb9c6_2_" x="-180" y="-648" class="st1" width="1718" height="832"/>
<rect id="_x23_6000FF" x="-180" y="-648" class="st2" width="1718" height="832"/>
<rect id="_x23_ffb9c6" x="-180" y="-648" class="st3" width="1718" height="832"/>
<rect id="_x23_68d6ff" x="-180" y="-648" class="st4" width="1718" height="832"/>
<rect id="_x23_ed7600" x="-180" y="-648" class="st5" width="1718" height="832"/>
<rect id="Coverrood" x="-180" y="-648" class="st6" width="1718" height="832"/>
<rect id="_x23_dfe52d" x="-180" y="-648" class="st7" width="1718" height="832"/>
<rect id="_x23_86aeaf" x="-180" y="-648" class="st8" width="1718" height="832"/>
<g id="Zwart" class="st9">
	<g id="Basis" class="st10">
		<path d="M279.4-282.8h-19.7c-4.9,0-7.8-2.3-8.6-7l-2.9-31.6H138.4v97.5h108.2v31.1H138.4v100.4h109.8l2.5-29.5
			c0.8-4.4,3.8-6.6,9-6.6h19.7v68H68.7v-17.2c0-4.4,2-7,6.1-7.8l23.4-4.5v-234c-13.1-2.5-20.9-4.1-23.4-4.9
			c-4.1-0.8-6.1-3.4-6.1-7.8v-17.2h210.7V-282.8z M778.5-267.7h-19.7c-5.2,0-8.2-2.5-9-7.4l-3.3-36.9c-23-7.4-43.6-11.1-61.9-11.1
			c-30.9,0-56.3,10.4-76.2,31.1c-19.9,21.6-29.9,49.9-29.9,84.8c0,22.7,4.2,42.8,12.5,60.2c8.3,17.5,20.2,31.1,35.7,40.8
			c15.4,9.7,33.4,14.5,53.9,14.5c15.8,0,29.7-2,41.6-5.9c11.9-4,23-10.7,33.4-20.3c2.5-2.2,4.9-3.3,7.4-3.3c2.2,0,4.1,0.8,5.7,2.5
			l15.6,17.2C758.9-71.8,723.6-57,678.5-57c-28.4,0-53.2-6.5-74.4-19.5c-21.2-13-37.4-30.8-48.8-53.5c-11.3-22.7-17-48.4-17-77
			c0-44,13.7-80.1,41-108.2c27-27.9,64.1-41.8,111.1-41.8c21.9,0,51.2,6.8,88.1,20.5V-267.7z M929-264.8c10.9,4.1,19.9,10,27,17.6
			c8.2,8.7,14.2,18.4,18,29.1c4.4,12.3,6.6,25.4,6.6,39.3c0,6.3-0.6,10.1-1.6,11.5c-1.4,1.9-3.8,2.9-7.4,2.9H833.9
			c0,13.1,1.6,24.6,4.9,34.4c2.7,8.5,7.4,16.4,13.9,23.8c6,6.8,12.8,11.8,20.5,14.8c8.2,3.3,16.9,4.9,26.2,4.9
			c9.8,0,17.8-1,23.8-2.9c5.7-1.9,11.5-4.2,17.2-7c6-3,10.1-5.2,12.3-6.6c3.5-2.2,6.3-3.3,8.2-3.3c3,0,5.3,1.2,7,3.7L978.1-89
			c-3.8,4.9-9.3,9.6-16.4,13.9c-8.2,5.2-14.9,8.6-20.1,10.2c-8.2,2.7-15.6,4.6-22.1,5.7c-8.2,1.4-15.7,2-22.5,2
			c-14.2,0-27.5-2.5-39.8-7.4C845.5-69,835-76.3,825.7-86.1c-8.7-9-15.6-20.6-20.5-34.8c-4.9-13.9-7.4-29.8-7.4-47.5
			c0-14.2,2.3-27.6,7-40.2c4.6-12.8,11.1-23.8,19.3-32.8c8.5-9.3,18.7-16.5,30.7-21.7c12-5.2,25.4-7.8,40.2-7.8
			C907-270.9,918.3-268.9,929-264.8z M854.4-229.1c-10.1,10.7-16.4,24.9-18.9,42.6h112.7c0-8.5-1.2-16.1-3.7-23
			c-3-8.5-6.3-14.6-9.8-18.4c-4.6-4.9-10.2-8.9-16.8-11.9c-6.3-2.7-13.8-4.1-22.5-4.1l0.4-0.4C878-244.3,864.2-239.2,854.4-229.1z
			 M1140.8-264.8c10.9,4.1,19.9,10,27,17.6c8.2,8.7,14.2,18.4,18,29.1c4.4,12.3,6.6,25.4,6.6,39.3c0,6.3-0.6,10.1-1.6,11.5
			c-1.4,1.9-3.8,2.9-7.4,2.9h-137.7c0,13.1,1.6,24.6,4.9,34.4c2.7,8.5,7.4,16.4,13.9,23.8c6,6.8,12.8,11.8,20.5,14.8
			c8.2,3.3,16.9,4.9,26.2,4.9c9.8,0,17.8-1,23.8-2.9c5.7-1.9,11.5-4.2,17.2-7c6-3,10.1-5.2,12.3-6.6c3.5-2.2,6.3-3.3,8.2-3.3
			c3,0,5.3,1.2,7,3.7L1190-89c-3.8,4.9-9.3,9.6-16.4,13.9c-8.2,5.2-14.9,8.6-20.1,10.2c-8.2,2.7-15.6,4.6-22.1,5.7
			c-8.2,1.4-15.7,2-22.5,2c-14.2,0-27.5-2.5-39.8-7.4c-11.8-4.6-22.3-11.9-31.6-21.7c-8.7-9-15.6-20.6-20.5-34.8
			c-4.9-13.9-7.4-29.8-7.4-47.5c0-14.2,2.3-27.6,7-40.2c4.6-12.8,11.1-23.8,19.3-32.8c8.5-9.3,18.7-16.5,30.7-21.7
			c12-5.2,25.4-7.8,40.2-7.8C1118.8-270.9,1130.2-268.9,1140.8-264.8z M1066.2-229.1c-10.1,10.7-16.4,24.9-18.9,42.6h112.7
			c0-8.5-1.2-16.1-3.7-23c-3-8.5-6.3-14.6-9.8-18.4c-4.6-4.9-10.2-8.9-16.8-11.9c-6.3-2.7-13.8-4.1-22.5-4.1l0.4-0.4
			C1089.9-244.3,1076.1-239.2,1066.2-229.1z M325-336.3c0-0.3,0-0.6,0-0.9c0-5.5,2.2-10.5,5.9-14.1c3.6-3.6,8.6-5.9,14.1-5.9
			s10.5,2.2,14.1,5.9c3.6,3.6,5.9,8.6,5.9,14.1c0,0.3,0,0.6,0,0.9c0,0.3,0,0.6-0.1,0.9c0,0.1,0,0.2,0,0.2s0,0.2,0,0.2
			c0,0.3-0.1,0.6-0.1,0.8c0,0.3-0.1,0.5-0.1,0.8c0,0,0,0,0,0.1c0,0,0,0,0,0.1c-0.1,0.3-0.1,0.6-0.2,0.8c-0.1,0.3-0.1,0.5-0.2,0.8
			c0,0.1-0.1,0.2-0.1,0.3c0,0.1-0.1,0.2-0.1,0.3c-0.1,0.2-0.1,0.4-0.2,0.6c-0.1,0.2-0.2,0.4-0.2,0.6c0,0.1-0.1,0.2-0.1,0.3
			c0,0.1-0.1,0.2-0.1,0.3c-0.1,0.2-0.2,0.4-0.3,0.6s-0.2,0.4-0.3,0.6c-0.1,0.1-0.1,0.2-0.2,0.3s-0.1,0.2-0.2,0.3
			c-0.1,0.1-0.2,0.3-0.2,0.4s-0.2,0.3-0.3,0.4c-0.1,0.2-0.2,0.4-0.3,0.5s-0.2,0.3-0.4,0.5c-0.1,0.1-0.2,0.2-0.2,0.3
			c-0.1,0.1-0.2,0.2-0.2,0.3c-0.1,0.1-0.2,0.2-0.3,0.4c-0.1,0.1-0.2,0.2-0.3,0.4c-0.1,0.1-0.1,0.1-0.2,0.2c-0.1,0.1-0.1,0.1-0.2,0.2
			c-0.2,0.2-0.5,0.5-0.7,0.7s-0.5,0.5-0.7,0.7c0,0-0.1,0.1-0.1,0.1c0,0-0.1,0.1-0.1,0.1c-0.1,0.1-0.3,0.2-0.4,0.4
			c-0.1,0.1-0.3,0.2-0.4,0.4c0,0-0.1,0.1-0.1,0.1c0,0-0.1,0.1-0.1,0.1c-0.3,0.2-0.6,0.5-1,0.7c-0.3,0.2-0.7,0.4-1,0.6
			c-1.5,0.8-3.1,1.5-4.7,2c-1.7,0.5-3.4,0.7-5.2,0.7s-3.6-0.2-5.2-0.7s-3.3-1.1-4.7-2c-0.3-0.2-0.7-0.4-1-0.6
			c-0.3-0.2-0.7-0.4-1-0.7c0,0-0.1-0.1-0.1-0.1c0,0-0.1-0.1-0.1-0.1c-0.2-0.1-0.3-0.2-0.4-0.4c-0.1-0.1-0.3-0.2-0.4-0.4
			c0,0-0.1-0.1-0.1-0.1c0,0-0.1-0.1-0.1-0.1c-0.2-0.2-0.5-0.4-0.7-0.7c-0.2-0.2-0.5-0.5-0.7-0.7c-0.1-0.1-0.1-0.1-0.2-0.2
			s-0.1-0.1-0.2-0.2c-0.1-0.1-0.2-0.2-0.3-0.4s-0.2-0.2-0.3-0.4c-0.1-0.1-0.2-0.2-0.2-0.3c-0.1-0.1-0.2-0.2-0.2-0.3
			c-0.1-0.2-0.2-0.3-0.4-0.5s-0.2-0.4-0.3-0.5c-0.1-0.1-0.2-0.3-0.3-0.4s-0.2-0.3-0.2-0.4c-0.1-0.1-0.1-0.2-0.2-0.3
			s-0.1-0.2-0.2-0.3c-0.1-0.2-0.2-0.4-0.3-0.6s-0.2-0.4-0.3-0.6c0-0.1-0.1-0.2-0.1-0.3c0-0.1-0.1-0.2-0.1-0.3
			c-0.1-0.2-0.2-0.4-0.2-0.6c-0.1-0.2-0.2-0.4-0.2-0.6c0-0.1-0.1-0.2-0.1-0.3c0-0.1-0.1-0.2-0.1-0.3c-0.1-0.3-0.2-0.5-0.2-0.8
			c-0.1-0.3-0.1-0.5-0.2-0.8c0,0,0,0,0-0.1c0,0,0,0,0-0.1c-0.1-0.3-0.1-0.5-0.1-0.8c0-0.3-0.1-0.5-0.1-0.8c0-0.1,0-0.2,0-0.2
			s0-0.2,0-0.2C325.1-335.6,325-336,325-336.3z M450.8-335.4c0,0.1,0,0.2,0,0.2s0,0.2,0,0.2c0,0.3,0.1,0.6,0.1,0.8
			c0,0.3,0.1,0.5,0.1,0.8c0,0,0,0,0,0.1c0,0,0,0,0,0.1c0.1,0.3,0.1,0.6,0.2,0.8c0.1,0.3,0.1,0.5,0.2,0.8c0,0.1,0.1,0.2,0.1,0.3
			c0,0.1,0.1,0.2,0.1,0.3c0.1,0.2,0.1,0.4,0.2,0.6c0.1,0.2,0.2,0.4,0.2,0.6c0,0.1,0.1,0.2,0.1,0.3c0,0.1,0.1,0.2,0.1,0.3
			c0.1,0.2,0.2,0.4,0.3,0.6s0.2,0.4,0.3,0.6c0.1,0.1,0.1,0.2,0.2,0.3s0.1,0.2,0.2,0.3c0.1,0.1,0.2,0.3,0.2,0.4s0.2,0.3,0.3,0.4
			c0.1,0.2,0.2,0.4,0.3,0.5s0.2,0.3,0.4,0.5c0.1,0.1,0.2,0.2,0.2,0.3c0.1,0.1,0.2,0.2,0.2,0.3c0.1,0.1,0.2,0.2,0.3,0.4
			c0.1,0.1,0.2,0.2,0.3,0.4c0.1,0.1,0.1,0.1,0.2,0.2c0.1,0.1,0.1,0.1,0.2,0.2c0.2,0.2,0.5,0.5,0.7,0.7s0.5,0.5,0.7,0.7
			c0,0,0.1,0.1,0.1,0.1c0,0,0.1,0.1,0.1,0.1c0.1,0.1,0.3,0.2,0.4,0.4c0.1,0.1,0.3,0.2,0.4,0.4c0,0,0.1,0.1,0.1,0.1
			c0,0,0.1,0.1,0.1,0.1c0.3,0.2,0.6,0.5,1,0.7c0.3,0.2,0.7,0.4,1,0.6c1.5,0.8,3.1,1.5,4.7,2s3.4,0.7,5.2,0.7s3.6-0.2,5.2-0.7
			c1.7-0.5,3.3-1.1,4.7-2c0.3-0.2,0.7-0.4,1-0.6c0.3-0.2,0.7-0.4,1-0.7c0,0,0.1-0.1,0.1-0.1c0,0,0.1-0.1,0.1-0.1
			c0.2-0.1,0.3-0.2,0.4-0.4c0.1-0.1,0.3-0.2,0.4-0.4c0,0,0.1-0.1,0.1-0.1c0,0,0.1-0.1,0.1-0.1c0.2-0.2,0.5-0.4,0.7-0.7
			c0.2-0.2,0.5-0.5,0.7-0.7c0.1-0.1,0.1-0.1,0.2-0.2s0.1-0.1,0.2-0.2c0.1-0.1,0.2-0.2,0.3-0.4s0.2-0.2,0.3-0.4
			c0.1-0.1,0.2-0.2,0.2-0.3c0.1-0.1,0.2-0.2,0.2-0.3c0.1-0.2,0.2-0.3,0.4-0.5s0.2-0.4,0.3-0.5c0.1-0.1,0.2-0.3,0.3-0.4
			s0.2-0.3,0.2-0.4c0.1-0.1,0.1-0.2,0.2-0.3s0.1-0.2,0.2-0.3c0.1-0.2,0.2-0.4,0.3-0.6s0.2-0.4,0.3-0.6c0-0.1,0.1-0.2,0.1-0.3
			c0-0.1,0.1-0.2,0.1-0.3c0.1-0.2,0.2-0.4,0.2-0.6c0.1-0.2,0.2-0.4,0.2-0.6c0-0.1,0.1-0.2,0.1-0.3c0-0.1,0.1-0.2,0.1-0.3
			c0.1-0.3,0.2-0.5,0.2-0.8c0.1-0.3,0.1-0.5,0.2-0.8c0,0,0,0,0-0.1c0,0,0,0,0-0.1c0.1-0.3,0.1-0.5,0.1-0.8c0-0.3,0.1-0.5,0.1-0.8
			c0-0.1,0-0.2,0-0.2s0-0.2,0-0.2c0-0.3,0-0.6,0.1-0.9c0-0.3,0-0.6,0-0.9c0-5.5-2.2-10.5-5.9-14.1c-3.6-3.6-8.6-5.9-14.1-5.9
			s-10.5,2.2-14.1,5.9c-3.6,3.6-5.9,8.6-5.9,14.1c0,0.3,0,0.6,0,0.9S450.8-335.6,450.8-335.4z M470.8-312.2c-1.7,0-3.3-0.2-4.8-0.5
			c-1.6-0.3-3.1-0.8-4.5-1.4l2,19.7l2,19.7c0.9-0.3,1.8-0.5,2.8-0.7s1.9-0.3,2.9-0.3c0.9,0,1.8,0.1,2.7,0.2s1.7,0.3,2.5,0.6l2-19.6
			l2-19.6c-1.4,0.6-3,1-4.5,1.4C474-312.3,472.4-312.2,470.8-312.2z M345-312.2c-1.7,0-3.3-0.2-4.8-0.5c-1.6-0.3-3.1-0.8-4.5-1.4
			l2,19.6l2,19.6c0.8-0.3,1.7-0.5,2.5-0.6s1.8-0.2,2.7-0.2c1,0,2,0.1,2.9,0.3c0.9,0.2,1.9,0.4,2.8,0.7l2-19.7l2-19.7
			c-1.4,0.6-3,1-4.5,1.4C348.3-312.3,346.7-312.2,345-312.2z M1247-22c0,7.2-5.8,13-13,13c-3.2,0-6.1-1.1-8.3-3h-358H501.3
			l-46.7-68.2l-46.7-68.2l-46.7,68.2L314.4-12H171.7H29v-85v-85l0-0.4l0-0.4c-5.8-2.1-10.8-5.9-14.4-10.8S9-204.5,9-211
			c0-8.3,3.4-15.8,8.8-21.2c5.4-5.4,12.9-8.8,21.2-8.8c8.3,0,15.8,3.4,21.2,8.8c5.4,5.4,8.8,12.9,8.8,21.2c0,6.5-2.1,12.6-5.6,17.5
			c-3.5,4.9-8.5,8.7-14.4,10.8l0,0.4l0,0.4v75v75h127.4h127.4l45.9-67.1l45.9-67.1l-27.1-39.6l-27.1-39.6c-2.8-0.7-5.2-2.4-7-4.6
			c-1.7-2.2-2.8-5-2.8-8c0-3.6,1.5-6.8,3.8-9.2s5.6-3.8,9.2-3.8s6.8,1.5,9.2,3.8s3.8,5.6,3.8,9.2c0,0.1,0,0.3,0,0.4
			c0,0.1,0,0.3,0,0.4l25.1,36.6l25.1,36.6l25.1-36.6l25.1-36.6c0-0.1,0-0.3,0-0.4c0-0.1,0-0.3,0-0.4c0-3.6,1.5-6.8,3.8-9.2
			s5.6-3.8,9.2-3.8s6.8,1.5,9.2,3.8s3.8,5.6,3.8,9.2c0,3-1,5.8-2.8,8c-1.7,2.2-4.2,3.8-7,4.6l-27.1,39.6L420-166.2l45.9,67.1
			L511.9-32h361.1h352.8c2.3-1.9,5.1-3,8.3-3C1241.2-35,1247-29.2,1247-22z M46.1-203.9c1.8-1.8,2.9-4.3,2.9-7.1
			c0-2.8-1.1-5.3-2.9-7.1c-1.8-1.8-4.3-2.9-7.1-2.9s-5.3,1.1-7.1,2.9S29-213.8,29-211c0,2.8,1.1,5.3,2.9,7.1s4.3,2.9,7.1,2.9
			S44.3-202.1,46.1-203.9z M1254-99c0,11-9,20-20,20s-20-9-20-20s9-20,20-20S1254-110,1254-99z M1234-40c2,0,3.9,0.3,5.7,0.9
			l3.7-36.8c-2.9,1.2-6.1,1.8-9.4,1.8s-6.5-0.7-9.4-1.8l3.7,36.8C1230.1-39.7,1232-40,1234-40z"/>
	</g>
	<path id="Vliegtuig" class="st10" d="M1006.2-281.1c-2.5-8.7-4.9-16.8-7.1-24.9c-5.6-20.2-11.5-40.3-16.7-60.6
		c-1.3-5-3.5-5.2-7.4-4c-6.7,2.1-13.3,4.2-20,6.3c-8.6,2.7-17.2,5.1-25.7,8.2c-2,0.7-3.9,3.3-4.8,5.4c-1.2,2.7-1.9,5.8-2,8.7
		c-0.1,11.8-7.6,17.9-17.6,22.8c-0.4-1.5-1-2.9-1.2-4.4c-1-9.4-2.2-18.8-2.9-28.3c-0.4-5.9-2.2-10.9-5.6-15.7
		c-5.6-7.7-10.7-15.6-16-23.5c-0.8-1.2-1.4-2.5-2.5-4.5c6.2-0.7,11.7-1.4,17.3-1.8c0.9-0.1,2,1,2.9,1.7c5.2,3.9,10.1,8.2,15.5,11.8
		c1.8,1.2,4.9,2,6.7,1.2c15.5-6.1,30.8-12.7,46.1-19.1c2.6-1.1,3.9-2.4,2.4-5.7c-10.9-23.5-21.6-47.2-32.3-70.8
		c-1.6-3.6-3.2-7.2-5.1-11.5c6-0.6,11.6-1.3,17.3-1.6c1.1-0.1,2.6,1.4,3.5,2.5c9.8,11.5,19.5,23.1,29.2,34.7
		c9.1,10.8,18.1,21.7,27.3,32.4c1.1,1.2,3.9,1.9,5.5,1.5c14.1-3.9,28.1-8.2,42.2-12.1c9-2.5,17.8-1.1,26.5,2
		c3.8,1.3,3.6,3.7,1.8,6.7c-5.9,10-14.6,16.7-25.1,21.2c-11.1,4.9-22.4,9.5-33.4,14.5c-1.6,0.8-3.5,3.3-3.5,5.1
		c-0.2,28.6-0.1,57.2,0.1,85.8c0,3.9-0.9,6.6-4.5,8.6C1013.5-286.4,1010.2-283.8,1006.2-281.1z"/>
</g>
<g id="Wit">
	<g id="Basis_1_">
		<path class="st11" d="M279.4-282.8h-19.7c-4.9,0-7.8-2.3-8.6-7l-2.9-31.6H138.4v97.5h108.2v31.1H138.4v100.4h109.8l2.5-29.5
			c0.8-4.4,3.8-6.6,9-6.6h19.7v68H68.7v-17.2c0-4.4,2-7,6.1-7.8l23.4-4.5v-234c-13.1-2.5-20.9-4.1-23.4-4.9
			c-4.1-0.8-6.1-3.4-6.1-7.8v-17.2h210.7V-282.8z M778.5-267.7h-19.7c-5.2,0-8.2-2.5-9-7.4l-3.3-36.9c-23-7.4-43.6-11.1-61.9-11.1
			c-30.9,0-56.3,10.4-76.2,31.1c-19.9,21.6-29.9,49.9-29.9,84.8c0,22.7,4.2,42.8,12.5,60.2c8.3,17.5,20.2,31.1,35.7,40.8
			c15.4,9.7,33.4,14.5,53.9,14.5c15.8,0,29.7-2,41.6-5.9c11.9-4,23-10.7,33.4-20.3c2.5-2.2,4.9-3.3,7.4-3.3c2.2,0,4.1,0.8,5.7,2.5
			l15.6,17.2C758.9-71.8,723.6-57,678.5-57c-28.4,0-53.2-6.5-74.4-19.5c-21.2-13-37.4-30.8-48.8-53.5c-11.3-22.7-17-48.4-17-77
			c0-44,13.7-80.1,41-108.2c27-27.9,64.1-41.8,111.1-41.8c21.9,0,51.2,6.8,88.1,20.5V-267.7z M929-264.8c10.9,4.1,19.9,10,27,17.6
			c8.2,8.7,14.2,18.4,18,29.1c4.4,12.3,6.6,25.4,6.6,39.3c0,6.3-0.6,10.1-1.6,11.5c-1.4,1.9-3.8,2.9-7.4,2.9H833.9
			c0,13.1,1.6,24.6,4.9,34.4c2.7,8.5,7.4,16.4,13.9,23.8c6,6.8,12.8,11.8,20.5,14.8c8.2,3.3,16.9,4.9,26.2,4.9
			c9.8,0,17.8-1,23.8-2.9c5.7-1.9,11.5-4.2,17.2-7c6-3,10.1-5.2,12.3-6.6c3.5-2.2,6.3-3.3,8.2-3.3c3,0,5.3,1.2,7,3.7L978.1-89
			c-3.8,4.9-9.3,9.6-16.4,13.9c-8.2,5.2-14.9,8.6-20.1,10.2c-8.2,2.7-15.6,4.6-22.1,5.7c-8.2,1.4-15.7,2-22.5,2
			c-14.2,0-27.5-2.5-39.8-7.4C845.5-69,835-76.3,825.7-86.1c-8.7-9-15.6-20.6-20.5-34.8c-4.9-13.9-7.4-29.8-7.4-47.5
			c0-14.2,2.3-27.6,7-40.2c4.6-12.8,11.1-23.8,19.3-32.8c8.5-9.3,18.7-16.5,30.7-21.7c12-5.2,25.4-7.8,40.2-7.8
			C907-270.9,918.3-268.9,929-264.8z M854.4-229.1c-10.1,10.7-16.4,24.9-18.9,42.6h112.7c0-8.5-1.2-16.1-3.7-23
			c-3-8.5-6.3-14.6-9.8-18.4c-4.6-4.9-10.2-8.9-16.8-11.9c-6.3-2.7-13.8-4.1-22.5-4.1l0.4-0.4C878-244.3,864.2-239.2,854.4-229.1z
			 M1140.8-264.8c10.9,4.1,19.9,10,27,17.6c8.2,8.7,14.2,18.4,18,29.1c4.4,12.3,6.6,25.4,6.6,39.3c0,6.3-0.6,10.1-1.6,11.5
			c-1.4,1.9-3.8,2.9-7.4,2.9h-137.7c0,13.1,1.6,24.6,4.9,34.4c2.7,8.5,7.4,16.4,13.9,23.8c6,6.8,12.8,11.8,20.5,14.8
			c8.2,3.3,16.9,4.9,26.2,4.9c9.8,0,17.8-1,23.8-2.9c5.7-1.9,11.5-4.2,17.2-7c6-3,10.1-5.2,12.3-6.6c3.5-2.2,6.3-3.3,8.2-3.3
			c3,0,5.3,1.2,7,3.7L1190-89c-3.8,4.9-9.3,9.6-16.4,13.9c-8.2,5.2-14.9,8.6-20.1,10.2c-8.2,2.7-15.6,4.6-22.1,5.7
			c-8.2,1.4-15.7,2-22.5,2c-14.2,0-27.5-2.5-39.8-7.4c-11.8-4.6-22.3-11.9-31.6-21.7c-8.7-9-15.6-20.6-20.5-34.8
			c-4.9-13.9-7.4-29.8-7.4-47.5c0-14.2,2.3-27.6,7-40.2c4.6-12.8,11.1-23.8,19.3-32.8c8.5-9.3,18.7-16.5,30.7-21.7
			c12-5.2,25.4-7.8,40.2-7.8C1118.8-270.9,1130.2-268.9,1140.8-264.8z M1066.2-229.1c-10.1,10.7-16.4,24.9-18.9,42.6h112.7
			c0-8.5-1.2-16.1-3.7-23c-3-8.5-6.3-14.6-9.8-18.4c-4.6-4.9-10.2-8.9-16.8-11.9c-6.3-2.7-13.8-4.1-22.5-4.1l0.4-0.4
			C1089.9-244.3,1076.1-239.2,1066.2-229.1z M325-336.3c0-0.3,0-0.6,0-0.9c0-5.5,2.2-10.5,5.9-14.1c3.6-3.6,8.6-5.9,14.1-5.9
			s10.5,2.2,14.1,5.9c3.6,3.6,5.9,8.6,5.9,14.1c0,0.3,0,0.6,0,0.9c0,0.3,0,0.6-0.1,0.9c0,0.1,0,0.2,0,0.2s0,0.2,0,0.2
			c0,0.3-0.1,0.6-0.1,0.8c0,0.3-0.1,0.5-0.1,0.8c0,0,0,0,0,0.1c0,0,0,0,0,0.1c-0.1,0.3-0.1,0.6-0.2,0.8c-0.1,0.3-0.1,0.5-0.2,0.8
			c0,0.1-0.1,0.2-0.1,0.3c0,0.1-0.1,0.2-0.1,0.3c-0.1,0.2-0.1,0.4-0.2,0.6c-0.1,0.2-0.2,0.4-0.2,0.6c0,0.1-0.1,0.2-0.1,0.3
			c0,0.1-0.1,0.2-0.1,0.3c-0.1,0.2-0.2,0.4-0.3,0.6s-0.2,0.4-0.3,0.6c-0.1,0.1-0.1,0.2-0.2,0.3s-0.1,0.2-0.2,0.3
			c-0.1,0.1-0.2,0.3-0.2,0.4s-0.2,0.3-0.3,0.4c-0.1,0.2-0.2,0.4-0.3,0.5s-0.2,0.3-0.4,0.5c-0.1,0.1-0.2,0.2-0.2,0.3
			c-0.1,0.1-0.2,0.2-0.2,0.3c-0.1,0.1-0.2,0.2-0.3,0.4c-0.1,0.1-0.2,0.2-0.3,0.4c-0.1,0.1-0.1,0.1-0.2,0.2c-0.1,0.1-0.1,0.1-0.2,0.2
			c-0.2,0.2-0.5,0.5-0.7,0.7s-0.5,0.5-0.7,0.7c0,0-0.1,0.1-0.1,0.1c0,0-0.1,0.1-0.1,0.1c-0.1,0.1-0.3,0.2-0.4,0.4
			c-0.1,0.1-0.3,0.2-0.4,0.4c0,0-0.1,0.1-0.1,0.1c0,0-0.1,0.1-0.1,0.1c-0.3,0.2-0.6,0.5-1,0.7c-0.3,0.2-0.7,0.4-1,0.6
			c-1.5,0.8-3.1,1.5-4.7,2c-1.7,0.5-3.4,0.7-5.2,0.7s-3.6-0.2-5.2-0.7s-3.3-1.1-4.7-2c-0.3-0.2-0.7-0.4-1-0.6
			c-0.3-0.2-0.7-0.4-1-0.7c0,0-0.1-0.1-0.1-0.1c0,0-0.1-0.1-0.1-0.1c-0.2-0.1-0.3-0.2-0.4-0.4c-0.1-0.1-0.3-0.2-0.4-0.4
			c0,0-0.1-0.1-0.1-0.1c0,0-0.1-0.1-0.1-0.1c-0.2-0.2-0.5-0.4-0.7-0.7c-0.2-0.2-0.5-0.5-0.7-0.7c-0.1-0.1-0.1-0.1-0.2-0.2
			s-0.1-0.1-0.2-0.2c-0.1-0.1-0.2-0.2-0.3-0.4s-0.2-0.2-0.3-0.4c-0.1-0.1-0.2-0.2-0.2-0.3c-0.1-0.1-0.2-0.2-0.2-0.3
			c-0.1-0.2-0.2-0.3-0.4-0.5s-0.2-0.4-0.3-0.5c-0.1-0.1-0.2-0.3-0.3-0.4s-0.2-0.3-0.2-0.4c-0.1-0.1-0.1-0.2-0.2-0.3
			s-0.1-0.2-0.2-0.3c-0.1-0.2-0.2-0.4-0.3-0.6s-0.2-0.4-0.3-0.6c0-0.1-0.1-0.2-0.1-0.3c0-0.1-0.1-0.2-0.1-0.3
			c-0.1-0.2-0.2-0.4-0.2-0.6c-0.1-0.2-0.2-0.4-0.2-0.6c0-0.1-0.1-0.2-0.1-0.3c0-0.1-0.1-0.2-0.1-0.3c-0.1-0.3-0.2-0.5-0.2-0.8
			c-0.1-0.3-0.1-0.5-0.2-0.8c0,0,0,0,0-0.1c0,0,0,0,0-0.1c-0.1-0.3-0.1-0.5-0.1-0.8c0-0.3-0.1-0.5-0.1-0.8c0-0.1,0-0.2,0-0.2
			s0-0.2,0-0.2C325.1-335.6,325-336,325-336.3z M450.8-335.4c0,0.1,0,0.2,0,0.2s0,0.2,0,0.2c0,0.3,0.1,0.6,0.1,0.8
			c0,0.3,0.1,0.5,0.1,0.8c0,0,0,0,0,0.1c0,0,0,0,0,0.1c0.1,0.3,0.1,0.6,0.2,0.8c0.1,0.3,0.1,0.5,0.2,0.8c0,0.1,0.1,0.2,0.1,0.3
			c0,0.1,0.1,0.2,0.1,0.3c0.1,0.2,0.1,0.4,0.2,0.6c0.1,0.2,0.2,0.4,0.2,0.6c0,0.1,0.1,0.2,0.1,0.3c0,0.1,0.1,0.2,0.1,0.3
			c0.1,0.2,0.2,0.4,0.3,0.6s0.2,0.4,0.3,0.6c0.1,0.1,0.1,0.2,0.2,0.3s0.1,0.2,0.2,0.3c0.1,0.1,0.2,0.3,0.2,0.4s0.2,0.3,0.3,0.4
			c0.1,0.2,0.2,0.4,0.3,0.5s0.2,0.3,0.4,0.5c0.1,0.1,0.2,0.2,0.2,0.3c0.1,0.1,0.2,0.2,0.2,0.3c0.1,0.1,0.2,0.2,0.3,0.4
			c0.1,0.1,0.2,0.2,0.3,0.4c0.1,0.1,0.1,0.1,0.2,0.2c0.1,0.1,0.1,0.1,0.2,0.2c0.2,0.2,0.5,0.5,0.7,0.7s0.5,0.5,0.7,0.7
			c0,0,0.1,0.1,0.1,0.1c0,0,0.1,0.1,0.1,0.1c0.1,0.1,0.3,0.2,0.4,0.4c0.1,0.1,0.3,0.2,0.4,0.4c0,0,0.1,0.1,0.1,0.1
			c0,0,0.1,0.1,0.1,0.1c0.3,0.2,0.6,0.5,1,0.7c0.3,0.2,0.7,0.4,1,0.6c1.5,0.8,3.1,1.5,4.7,2s3.4,0.7,5.2,0.7s3.6-0.2,5.2-0.7
			c1.7-0.5,3.3-1.1,4.7-2c0.3-0.2,0.7-0.4,1-0.6c0.3-0.2,0.7-0.4,1-0.7c0,0,0.1-0.1,0.1-0.1c0,0,0.1-0.1,0.1-0.1
			c0.2-0.1,0.3-0.2,0.4-0.4c0.1-0.1,0.3-0.2,0.4-0.4c0,0,0.1-0.1,0.1-0.1c0,0,0.1-0.1,0.1-0.1c0.2-0.2,0.5-0.4,0.7-0.7
			c0.2-0.2,0.5-0.5,0.7-0.7c0.1-0.1,0.1-0.1,0.2-0.2s0.1-0.1,0.2-0.2c0.1-0.1,0.2-0.2,0.3-0.4s0.2-0.2,0.3-0.4
			c0.1-0.1,0.2-0.2,0.2-0.3c0.1-0.1,0.2-0.2,0.2-0.3c0.1-0.2,0.2-0.3,0.4-0.5s0.2-0.4,0.3-0.5c0.1-0.1,0.2-0.3,0.3-0.4
			s0.2-0.3,0.2-0.4c0.1-0.1,0.1-0.2,0.2-0.3s0.1-0.2,0.2-0.3c0.1-0.2,0.2-0.4,0.3-0.6s0.2-0.4,0.3-0.6c0-0.1,0.1-0.2,0.1-0.3
			c0-0.1,0.1-0.2,0.1-0.3c0.1-0.2,0.2-0.4,0.2-0.6c0.1-0.2,0.2-0.4,0.2-0.6c0-0.1,0.1-0.2,0.1-0.3c0-0.1,0.1-0.2,0.1-0.3
			c0.1-0.3,0.2-0.5,0.2-0.8c0.1-0.3,0.1-0.5,0.2-0.8c0,0,0,0,0-0.1c0,0,0,0,0-0.1c0.1-0.3,0.1-0.5,0.1-0.8c0-0.3,0.1-0.5,0.1-0.8
			c0-0.1,0-0.2,0-0.2s0-0.2,0-0.2c0-0.3,0-0.6,0.1-0.9c0-0.3,0-0.6,0-0.9c0-5.5-2.2-10.5-5.9-14.1c-3.6-3.6-8.6-5.9-14.1-5.9
			s-10.5,2.2-14.1,5.9c-3.6,3.6-5.9,8.6-5.9,14.1c0,0.3,0,0.6,0,0.9S450.8-335.6,450.8-335.4z M470.8-312.2c-1.7,0-3.3-0.2-4.8-0.5
			c-1.6-0.3-3.1-0.8-4.5-1.4l2,19.7l2,19.7c0.9-0.3,1.8-0.5,2.8-0.7s1.9-0.3,2.9-0.3c0.9,0,1.8,0.1,2.7,0.2s1.7,0.3,2.5,0.6l2-19.6
			l2-19.6c-1.4,0.6-3,1-4.5,1.4C474-312.3,472.4-312.2,470.8-312.2z M345-312.2c-1.7,0-3.3-0.2-4.8-0.5c-1.6-0.3-3.1-0.8-4.5-1.4
			l2,19.6l2,19.6c0.8-0.3,1.7-0.5,2.5-0.6s1.8-0.2,2.7-0.2c1,0,2,0.1,2.9,0.3c0.9,0.2,1.9,0.4,2.8,0.7l2-19.7l2-19.7
			c-1.4,0.6-3,1-4.5,1.4C348.3-312.3,346.7-312.2,345-312.2z M1247-22c0,7.2-5.8,13-13,13c-3.2,0-6.1-1.1-8.3-3h-358H501.3
			l-46.7-68.2l-46.7-68.2l-46.7,68.2L314.4-12H171.7H29v-85v-85l0-0.4l0-0.4c-5.8-2.1-10.8-5.9-14.4-10.8S9-204.5,9-211
			c0-8.3,3.4-15.8,8.8-21.2c5.4-5.4,12.9-8.8,21.2-8.8c8.3,0,15.8,3.4,21.2,8.8c5.4,5.4,8.8,12.9,8.8,21.2c0,6.5-2.1,12.6-5.6,17.5
			c-3.5,4.9-8.5,8.7-14.4,10.8l0,0.4l0,0.4v75v75h127.4h127.4l45.9-67.1l45.9-67.1l-27.1-39.6l-27.1-39.6c-2.8-0.7-5.2-2.4-7-4.6
			c-1.7-2.2-2.8-5-2.8-8c0-3.6,1.5-6.8,3.8-9.2s5.6-3.8,9.2-3.8s6.8,1.5,9.2,3.8s3.8,5.6,3.8,9.2c0,0.1,0,0.3,0,0.4
			c0,0.1,0,0.3,0,0.4l25.1,36.6l25.1,36.6l25.1-36.6l25.1-36.6c0-0.1,0-0.3,0-0.4c0-0.1,0-0.3,0-0.4c0-3.6,1.5-6.8,3.8-9.2
			s5.6-3.8,9.2-3.8s6.8,1.5,9.2,3.8s3.8,5.6,3.8,9.2c0,3-1,5.8-2.8,8c-1.7,2.2-4.2,3.8-7,4.6l-27.1,39.6L420-166.2l45.9,67.1
			L511.9-32h361.1h352.8c2.3-1.9,5.1-3,8.3-3C1241.2-35,1247-29.2,1247-22z M46.1-203.9c1.8-1.8,2.9-4.3,2.9-7.1
			c0-2.8-1.1-5.3-2.9-7.1c-1.8-1.8-4.3-2.9-7.1-2.9s-5.3,1.1-7.1,2.9S29-213.8,29-211c0,2.8,1.1,5.3,2.9,7.1s4.3,2.9,7.1,2.9
			S44.3-202.1,46.1-203.9z M1254-99c0,11-9,20-20,20s-20-9-20-20s9-20,20-20S1254-110,1254-99z M1234-40c2,0,3.9,0.3,5.7,0.9
			l3.7-36.8c-2.9,1.2-6.1,1.8-9.4,1.8s-6.5-0.7-9.4-1.8l3.7,36.8C1230.1-39.7,1232-40,1234-40z"/>
	</g>
	<g id="Vliegtuig_1_" class="st9">
		<path class="st12" d="M1006.2-281.1c-2.5-8.7-4.9-16.8-7.1-24.9c-5.6-20.2-11.5-40.3-16.7-60.6c-1.3-5-3.5-5.2-7.4-4
			c-6.7,2.1-13.3,4.2-20,6.3c-8.6,2.7-17.2,5.1-25.7,8.2c-2,0.7-3.9,3.3-4.8,5.4c-1.2,2.7-1.9,5.8-2,8.7
			c-0.1,11.8-7.6,17.9-17.6,22.8c-0.4-1.5-1-2.9-1.2-4.4c-1-9.4-2.2-18.8-2.9-28.3c-0.4-5.9-2.2-10.9-5.6-15.7
			c-5.6-7.7-10.7-15.6-16-23.5c-0.8-1.2-1.4-2.5-2.5-4.5c6.2-0.7,11.7-1.4,17.3-1.8c0.9-0.1,2,1,2.9,1.7c5.2,3.9,10.1,8.2,15.5,11.8
			c1.8,1.2,4.9,2,6.7,1.2c15.5-6.1,30.8-12.7,46.1-19.1c2.6-1.1,3.9-2.4,2.4-5.7c-10.9-23.5-21.6-47.2-32.3-70.8
			c-1.6-3.6-3.2-7.2-5.1-11.5c6-0.6,11.6-1.3,17.3-1.6c1.1-0.1,2.6,1.4,3.5,2.5c9.8,11.5,19.5,23.1,29.2,34.7
			c9.1,10.8,18.1,21.7,27.3,32.4c1.1,1.2,3.9,1.9,5.5,1.5c14.1-3.9,28.1-8.2,42.2-12.1c9-2.5,17.8-1.1,26.5,2
			c3.8,1.3,3.6,3.7,1.8,6.7c-5.9,10-14.6,16.7-25.1,21.2c-11.1,4.9-22.4,9.5-33.4,14.5c-1.6,0.8-3.5,3.3-3.5,5.1
			c-0.2,28.6-0.1,57.2,0.1,85.8c0,3.9-0.9,6.6-4.5,8.6C1013.5-286.4,1010.2-283.8,1006.2-281.1z"/>
	</g>
</g>
<g id="Logo_x5F_alt">
	<path class="st11" d="M279.4,150.2h-19.7c-4.9,0-7.8-2.3-8.6-7l-2.9-31.6H138.4v97.5h108.2v31.1H138.4v100.4h109.8l2.5-29.5
		c0.8-4.4,3.8-6.6,9-6.6h19.7v68H68.7v-17.2c0-4.4,2-7,6.1-7.8l23.4-4.5v-234c-13.1-2.5-20.9-4.1-23.4-4.9c-4.1-0.8-6.1-3.4-6.1-7.8
		V79.3h210.7V150.2z M778.5,165.3h-19.7c-5.2,0-8.2-2.5-9-7.4l-3.3-36.9c-23-7.4-43.6-11.1-61.9-11.1c-30.9,0-56.3,10.4-76.2,31.1
		c-19.9,21.6-29.9,49.9-29.9,84.8c0,22.7,4.2,42.8,12.5,60.2c8.3,17.5,20.2,31.1,35.7,40.8c15.4,9.7,33.4,14.5,53.9,14.5
		c15.8,0,29.7-2,41.6-5.9c11.9-4,23-10.7,33.4-20.3c2.5-2.2,4.9-3.3,7.4-3.3c2.2,0,4.1,0.8,5.7,2.5l15.6,17.2
		c-25.4,29.5-60.7,44.3-105.7,44.3c-28.4,0-53.2-6.5-74.4-19.5c-21.2-13-37.4-30.8-48.8-53.5c-11.3-22.7-17-48.4-17-77
		c0-44,13.7-80.1,41-108.2c27-27.9,64.1-41.8,111.1-41.8c21.9,0,51.2,6.8,88.1,20.5V165.3z M929,168.2c10.9,4.1,19.9,10,27,17.6
		c8.2,8.7,14.2,18.4,18,29.1c4.4,12.3,6.6,25.4,6.6,39.3c0,6.3-0.6,10.1-1.6,11.5c-1.4,1.9-3.8,2.9-7.4,2.9H833.9
		c0,13.1,1.6,24.6,4.9,34.4c2.7,8.5,7.4,16.4,13.9,23.8c6,6.8,12.8,11.8,20.5,14.8c8.2,3.3,16.9,4.9,26.2,4.9c9.8,0,17.8-1,23.8-2.9
		c5.7-1.9,11.5-4.2,17.2-7c6-3,10.1-5.2,12.3-6.6c3.5-2.2,6.3-3.3,8.2-3.3c3,0,5.3,1.2,7,3.7l10.2,13.5c-3.8,4.9-9.3,9.6-16.4,13.9
		c-8.2,5.2-14.9,8.6-20.1,10.2c-8.2,2.7-15.6,4.6-22.1,5.7c-8.2,1.4-15.7,2-22.5,2c-14.2,0-27.5-2.5-39.8-7.4
		c-11.8-4.6-22.3-11.9-31.6-21.7c-8.7-9-15.6-20.6-20.5-34.8c-4.9-13.9-7.4-29.8-7.4-47.5c0-14.2,2.3-27.6,7-40.2
		c4.6-12.8,11.1-23.8,19.3-32.8c8.5-9.3,18.7-16.5,30.7-21.7c12-5.2,25.4-7.8,40.2-7.8C907,162.1,918.3,164.1,929,168.2z
		 M854.4,203.9c-10.1,10.7-16.4,24.9-18.9,42.6h112.7c0-8.5-1.2-16.1-3.7-23c-3-8.5-6.3-14.6-9.8-18.4c-4.6-4.9-10.2-8.9-16.8-11.9
		c-6.3-2.7-13.8-4.1-22.5-4.1l0.4-0.4C878,188.7,864.2,193.8,854.4,203.9z M1140.8,168.2c10.9,4.1,19.9,10,27,17.6
		c8.2,8.7,14.2,18.4,18,29.1c4.4,12.3,6.6,25.4,6.6,39.3c0,6.3-0.6,10.1-1.6,11.5c-1.4,1.9-3.8,2.9-7.4,2.9h-137.7
		c0,13.1,1.6,24.6,4.9,34.4c2.7,8.5,7.4,16.4,13.9,23.8c6,6.8,12.8,11.8,20.5,14.8c8.2,3.3,16.9,4.9,26.2,4.9c9.8,0,17.8-1,23.8-2.9
		c5.7-1.9,11.5-4.2,17.2-7c6-3,10.1-5.2,12.3-6.6c3.5-2.2,6.3-3.3,8.2-3.3c3,0,5.3,1.2,7,3.7L1190,344c-3.8,4.9-9.3,9.6-16.4,13.9
		c-8.2,5.2-14.9,8.6-20.1,10.2c-8.2,2.7-15.6,4.6-22.1,5.7c-8.2,1.4-15.7,2-22.5,2c-14.2,0-27.5-2.5-39.8-7.4
		c-11.8-4.6-22.3-11.9-31.6-21.7c-8.7-9-15.6-20.6-20.5-34.8c-4.9-13.9-7.4-29.8-7.4-47.5c0-14.2,2.3-27.6,7-40.2
		c4.6-12.8,11.1-23.8,19.3-32.8c8.5-9.3,18.7-16.5,30.7-21.7c12-5.2,25.4-7.8,40.2-7.8C1118.8,162.1,1130.2,164.1,1140.8,168.2z
		 M1066.2,203.9c-10.1,10.7-16.4,24.9-18.9,42.6h112.7c0-8.5-1.2-16.1-3.7-23c-3-8.5-6.3-14.6-9.8-18.4c-4.6-4.9-10.2-8.9-16.8-11.9
		c-6.3-2.7-13.8-4.1-22.5-4.1l0.4-0.4C1089.9,188.7,1076.1,193.8,1066.2,203.9z M325,96.7c0-0.3,0-0.6,0-0.9
		c0-5.5,2.2-10.5,5.9-14.1c3.6-3.6,8.6-5.9,14.1-5.9s10.5,2.2,14.1,5.9c3.6,3.6,5.9,8.6,5.9,14.1c0,0.3,0,0.6,0,0.9
		c0,0.3,0,0.6-0.1,0.9c0,0.1,0,0.2,0,0.2s0,0.2,0,0.2c0,0.3-0.1,0.6-0.1,0.8c0,0.3-0.1,0.5-0.1,0.8c0,0,0,0,0,0.1c0,0,0,0,0,0.1
		c-0.1,0.3-0.1,0.6-0.2,0.8c-0.1,0.3-0.1,0.5-0.2,0.8c0,0.1-0.1,0.2-0.1,0.3c0,0.1-0.1,0.2-0.1,0.3c-0.1,0.2-0.1,0.4-0.2,0.6
		c-0.1,0.2-0.2,0.4-0.2,0.6c0,0.1-0.1,0.2-0.1,0.3c0,0.1-0.1,0.2-0.1,0.3c-0.1,0.2-0.2,0.4-0.3,0.6s-0.2,0.4-0.3,0.6
		c-0.1,0.1-0.1,0.2-0.2,0.3s-0.1,0.2-0.2,0.3c-0.1,0.1-0.2,0.3-0.2,0.4s-0.2,0.3-0.3,0.4c-0.1,0.2-0.2,0.4-0.3,0.5s-0.2,0.3-0.4,0.5
		c-0.1,0.1-0.2,0.2-0.2,0.3c-0.1,0.1-0.2,0.2-0.2,0.3c-0.1,0.1-0.2,0.2-0.3,0.4c-0.1,0.1-0.2,0.2-0.3,0.4c-0.1,0.1-0.1,0.1-0.2,0.2
		c-0.1,0.1-0.1,0.1-0.2,0.2c-0.2,0.2-0.5,0.5-0.7,0.7s-0.5,0.5-0.7,0.7c0,0-0.1,0.1-0.1,0.1c0,0-0.1,0.1-0.1,0.1
		c-0.1,0.1-0.3,0.2-0.4,0.4c-0.1,0.1-0.3,0.2-0.4,0.4c0,0-0.1,0.1-0.1,0.1c0,0-0.1,0.1-0.1,0.1c-0.3,0.2-0.6,0.5-1,0.7
		c-0.3,0.2-0.7,0.4-1,0.6c-1.5,0.8-3.1,1.5-4.7,2c-1.7,0.5-3.4,0.7-5.2,0.7s-3.6-0.2-5.2-0.7s-3.3-1.1-4.7-2c-0.3-0.2-0.7-0.4-1-0.6
		c-0.3-0.2-0.7-0.4-1-0.7c0,0-0.1-0.1-0.1-0.1c0,0-0.1-0.1-0.1-0.1c-0.2-0.1-0.3-0.2-0.4-0.4c-0.1-0.1-0.3-0.2-0.4-0.4
		c0,0-0.1-0.1-0.1-0.1c0,0-0.1-0.1-0.1-0.1c-0.2-0.2-0.5-0.4-0.7-0.7c-0.2-0.2-0.5-0.5-0.7-0.7c-0.1-0.1-0.1-0.1-0.2-0.2
		s-0.1-0.1-0.2-0.2c-0.1-0.1-0.2-0.2-0.3-0.4s-0.2-0.2-0.3-0.4c-0.1-0.1-0.2-0.2-0.2-0.3c-0.1-0.1-0.2-0.2-0.2-0.3
		c-0.1-0.2-0.2-0.3-0.4-0.5s-0.2-0.4-0.3-0.5c-0.1-0.1-0.2-0.3-0.3-0.4s-0.2-0.3-0.2-0.4c-0.1-0.1-0.1-0.2-0.2-0.3s-0.1-0.2-0.2-0.3
		c-0.1-0.2-0.2-0.4-0.3-0.6s-0.2-0.4-0.3-0.6c0-0.1-0.1-0.2-0.1-0.3c0-0.1-0.1-0.2-0.1-0.3c-0.1-0.2-0.2-0.4-0.2-0.6
		c-0.1-0.2-0.2-0.4-0.2-0.6c0-0.1-0.1-0.2-0.1-0.3c0-0.1-0.1-0.2-0.1-0.3c-0.1-0.3-0.2-0.5-0.2-0.8c-0.1-0.3-0.1-0.5-0.2-0.8
		c0,0,0,0,0-0.1c0,0,0,0,0-0.1c-0.1-0.3-0.1-0.5-0.1-0.8c0-0.3-0.1-0.5-0.1-0.8c0-0.1,0-0.2,0-0.2s0-0.2,0-0.2
		C325.1,97.4,325,97,325,96.7z M450.8,97.6c0,0.1,0,0.2,0,0.2s0,0.2,0,0.2c0,0.3,0.1,0.6,0.1,0.8c0,0.3,0.1,0.5,0.1,0.8
		c0,0,0,0,0,0.1c0,0,0,0,0,0.1c0.1,0.3,0.1,0.6,0.2,0.8c0.1,0.3,0.1,0.5,0.2,0.8c0,0.1,0.1,0.2,0.1,0.3c0,0.1,0.1,0.2,0.1,0.3
		c0.1,0.2,0.1,0.4,0.2,0.6c0.1,0.2,0.2,0.4,0.2,0.6c0,0.1,0.1,0.2,0.1,0.3c0,0.1,0.1,0.2,0.1,0.3c0.1,0.2,0.2,0.4,0.3,0.6
		s0.2,0.4,0.3,0.6c0.1,0.1,0.1,0.2,0.2,0.3s0.1,0.2,0.2,0.3c0.1,0.1,0.2,0.3,0.2,0.4s0.2,0.3,0.3,0.4c0.1,0.2,0.2,0.4,0.3,0.5
		s0.2,0.3,0.4,0.5c0.1,0.1,0.2,0.2,0.2,0.3c0.1,0.1,0.2,0.2,0.2,0.3c0.1,0.1,0.2,0.2,0.3,0.4c0.1,0.1,0.2,0.2,0.3,0.4
		c0.1,0.1,0.1,0.1,0.2,0.2c0.1,0.1,0.1,0.1,0.2,0.2c0.2,0.2,0.5,0.5,0.7,0.7s0.5,0.5,0.7,0.7c0,0,0.1,0.1,0.1,0.1
		c0,0,0.1,0.1,0.1,0.1c0.1,0.1,0.3,0.2,0.4,0.4c0.1,0.1,0.3,0.2,0.4,0.4c0,0,0.1,0.1,0.1,0.1c0,0,0.1,0.1,0.1,0.1
		c0.3,0.2,0.6,0.5,1,0.7c0.3,0.2,0.7,0.4,1,0.6c1.5,0.8,3.1,1.5,4.7,2s3.4,0.7,5.2,0.7s3.6-0.2,5.2-0.7c1.7-0.5,3.3-1.1,4.7-2
		c0.3-0.2,0.7-0.4,1-0.6c0.3-0.2,0.7-0.4,1-0.7c0,0,0.1-0.1,0.1-0.1c0,0,0.1-0.1,0.1-0.1c0.2-0.1,0.3-0.2,0.4-0.4
		c0.1-0.1,0.3-0.2,0.4-0.4c0,0,0.1-0.1,0.1-0.1c0,0,0.1-0.1,0.1-0.1c0.2-0.2,0.5-0.4,0.7-0.7c0.2-0.2,0.5-0.5,0.7-0.7
		c0.1-0.1,0.1-0.1,0.2-0.2s0.1-0.1,0.2-0.2c0.1-0.1,0.2-0.2,0.3-0.4s0.2-0.2,0.3-0.4c0.1-0.1,0.2-0.2,0.2-0.3
		c0.1-0.1,0.2-0.2,0.2-0.3c0.1-0.2,0.2-0.3,0.4-0.5s0.2-0.4,0.3-0.5c0.1-0.1,0.2-0.3,0.3-0.4s0.2-0.3,0.2-0.4
		c0.1-0.1,0.1-0.2,0.2-0.3s0.1-0.2,0.2-0.3c0.1-0.2,0.2-0.4,0.3-0.6s0.2-0.4,0.3-0.6c0-0.1,0.1-0.2,0.1-0.3c0-0.1,0.1-0.2,0.1-0.3
		c0.1-0.2,0.2-0.4,0.2-0.6c0.1-0.2,0.2-0.4,0.2-0.6c0-0.1,0.1-0.2,0.1-0.3c0-0.1,0.1-0.2,0.1-0.3c0.1-0.3,0.2-0.5,0.2-0.8
		c0.1-0.3,0.1-0.5,0.2-0.8c0,0,0,0,0-0.1c0,0,0,0,0-0.1c0.1-0.3,0.1-0.5,0.1-0.8c0-0.3,0.1-0.5,0.1-0.8c0-0.1,0-0.2,0-0.2
		s0-0.2,0-0.2c0-0.3,0-0.6,0.1-0.9c0-0.3,0-0.6,0-0.9c0-5.5-2.2-10.5-5.9-14.1c-3.6-3.6-8.6-5.9-14.1-5.9s-10.5,2.2-14.1,5.9
		c-3.6,3.6-5.9,8.6-5.9,14.1c0,0.3,0,0.6,0,0.9S450.8,97.4,450.8,97.6z M470.8,120.8c-1.7,0-3.3-0.2-4.8-0.5
		c-1.6-0.3-3.1-0.8-4.5-1.4l2,19.7l2,19.7c0.9-0.3,1.8-0.5,2.8-0.7s1.9-0.3,2.9-0.3c0.9,0,1.8,0.1,2.7,0.2s1.7,0.3,2.5,0.6l2-19.6
		l2-19.6c-1.4,0.6-3,1-4.5,1.4C474,120.7,472.4,120.8,470.8,120.8z M345,120.8c-1.7,0-3.3-0.2-4.8-0.5c-1.6-0.3-3.1-0.8-4.5-1.4
		l2,19.6l2,19.6c0.8-0.3,1.7-0.5,2.5-0.6s1.8-0.2,2.7-0.2c1,0,2,0.1,2.9,0.3c0.9,0.2,1.9,0.4,2.8,0.7l2-19.7l2-19.7
		c-1.4,0.6-3,1-4.5,1.4C348.3,120.7,346.7,120.8,345,120.8z M1247,411c0,7.2-5.8,13-13,13c-3.2,0-6.1-1.1-8.3-3h-358H501.3
		l-46.7-68.2l-46.7-68.2l-46.7,68.2L314.4,421H171.7H29v-85v-85l0-0.4l0-0.4c-5.8-2.1-10.8-5.9-14.4-10.8S9,228.5,9,222
		c0-8.3,3.4-15.8,8.8-21.2c5.4-5.4,12.9-8.8,21.2-8.8c8.3,0,15.8,3.4,21.2,8.8c5.4,5.4,8.8,12.9,8.8,21.2c0,6.5-2.1,12.6-5.6,17.5
		c-3.5,4.9-8.5,8.7-14.4,10.8l0,0.4l0,0.4v75v75h127.4h127.4l45.9-67.1l45.9-67.1l-27.1-39.6l-27.1-39.6c-2.8-0.7-5.2-2.4-7-4.6
		c-1.7-2.2-2.8-5-2.8-8c0-3.6,1.5-6.8,3.8-9.2s5.6-3.8,9.2-3.8s6.8,1.5,9.2,3.8s3.8,5.6,3.8,9.2c0,0.1,0,0.3,0,0.4
		c0,0.1,0,0.3,0,0.4l25.1,36.6l25.1,36.6l25.1-36.6l25.1-36.6c0-0.1,0-0.3,0-0.4c0-0.1,0-0.3,0-0.4c0-3.6,1.5-6.8,3.8-9.2
		s5.6-3.8,9.2-3.8s6.8,1.5,9.2,3.8s3.8,5.6,3.8,9.2c0,3-1,5.8-2.8,8c-1.7,2.2-4.2,3.8-7,4.6l-27.1,39.6L420,266.8l45.9,67.1
		l45.9,67.1h361.1h352.8c2.3-1.9,5.1-3,8.3-3C1241.2,398,1247,403.8,1247,411z M46.1,229.1c1.8-1.8,2.9-4.3,2.9-7.1
		c0-2.8-1.1-5.3-2.9-7.1c-1.8-1.8-4.3-2.9-7.1-2.9s-5.3,1.1-7.1,2.9S29,219.2,29,222c0,2.8,1.1,5.3,2.9,7.1s4.3,2.9,7.1,2.9
		S44.3,230.9,46.1,229.1z M1254,334c0,11-9,20-20,20s-20-9-20-20s9-20,20-20S1254,323,1254,334z M1234,393c2,0,3.9,0.3,5.7,0.9
		l3.7-36.8c-2.9,1.2-6.1,1.8-9.4,1.8s-6.5-0.7-9.4-1.8l3.7,36.8C1230.1,393.3,1232,393,1234,393z"/>
</g>
</svg>
